<?xml version="1.0" standalone="no"?><!DOCTYPE svg PUBLIC "-//W3C//DTD SVG 1.1//EN" "http://www.w3.org/Graphics/SVG/1.1/DTD/svg11.dtd"><svg class="icon" width="200px" height="200.00px" viewBox="0 0 1024 1024" version="1.1" xmlns="http://www.w3.org/2000/svg"><path fill="#2e1a29" d="M112.8 112h159.84v160H112.8zM432.48 112v160H272.64v159.992h159.848V272H592.32V112zM752.16 112v160H592.32v159.992h159.848V272H912V112zM112 432h159.848v160H112zM431.68 432v160H271.848v159.992h159.84V592h159.84V432zM751.36 592H591.528v159.992h159.84V592h159.84V432H751.36zM112 752h159.848v160H112zM431.68 752h159.848v160H431.68zM751.36 752h159.848v160H751.36z" /></svg>