<?xml version="1.0" standalone="no"?><!DOCTYPE svg PUBLIC "-//W3C//DTD SVG 1.1//EN" "http://www.w3.org/Graphics/SVG/1.1/DTD/svg11.dtd"><svg class="icon" width="200px" height="200.00px" viewBox="0 0 1024 1024" version="1.1" xmlns="http://www.w3.org/2000/svg"><path fill="#2e1a29" d="M512 960A448 448 0 0 0 960 512V263.533714L1024 199.533714V512a512 512 0 0 1-512 512H187.977143a14.628571 14.628571 0 0 1-9.142857-26.038857l273.773714-218.989714a36.571429 36.571429 0 0 1 59.392 28.525714v152.502857zM809.837714 0h26.185143a14.628571 14.628571 0 0 1 9.142857 26.038857L571.392 245.028571A36.571429 36.571429 0 0 1 512 216.502857V64A448 448 0 0 0 64 512v233.837714L0 809.837714V512a512 512 0 0 1 512-512h297.837714z"  /></svg>