<svg class="icon" width="200" height="199.61" viewBox="0 0 1026 1024" xmlns="http://www.w3.org/2000/svg"><path fill="gold" d="M1016.604 391.026c0-41.87-33.934-75.833-75.832-75.833s-75.833 33.934-75.833 75.833c0 16.07 5.063 30.919 13.596 43.178-39.964 22.472-79.587 54.386-144.327 54.386-10.496 0-20.65-.853-30.123-2.56-101.86-18.318-156.273-136.732-161.735-171.634 25.259-12.316 42.81-37.973 42.81-67.982 0-41.87-33.935-75.833-75.834-75.833s-75.833 33.935-75.833 75.833c0 32.54 20.594 60.046 49.38 70.827-5.149 38.855-57.486 160.768-156.558 174.99-8.022 1.166-16.498 1.735-25.174 1.735-64.227 0-103.623-30.89-146.204-54.585 3.811-9.045 5.916-18.972 5.916-29.383 0-41.87-33.934-75.833-75.833-75.833-20.536 0-39.082 8.25-52.736 21.476l-1.28-.996.626 1.565c-13.795 13.71-22.386 32.74-22.386 53.76 0 41.842 33.906 75.776 75.748 75.804l196.21 476.53h462.933l204.317-496.242c38.229-3.897 68.152-35.811 68.152-75.036zm-310.556 514.39H319.346l-165.69-402.348c47.588 23.58 83.57 47.787 147.57 47.787 11.378 0 22.586-.768 33.252-2.304 83.598-11.975 156.615-72.675 180.281-130.02 25.031 53.305 98.56 108.971 179.285 123.506 12.8 2.304 26.312 3.47 40.192 3.47 60.473 0 92.7-21.93 138.041-43.719L706.048 905.415z"/></svg>