<?xml version="1.0" standalone="no"?><!DOCTYPE svg PUBLIC "-//W3C//DTD SVG 1.1//EN" "http://www.w3.org/Graphics/SVG/1.1/DTD/svg11.dtd"><svg class="icon" width="200px" height="199.61px" viewBox="0 0 1026 1024" version="1.1" xmlns="http://www.w3.org/2000/svg"><path fill="#ffd700" d="M1016.604444 391.025778c0-41.870222-33.934222-75.832889-75.832889-75.832889s-75.832889 33.934222-75.832889 75.832889c0 16.071111 5.063111 30.919111 13.596444 43.178667-39.964444 22.471111-79.587556 54.385778-144.327111 54.385778-10.496 0-20.650667-0.853333-30.122667-2.56-101.859556-18.318222-156.273778-136.732444-161.735111-171.633778 25.258667-12.316444 42.808889-37.973333 42.808889-67.982222 0-41.870222-33.934222-75.832889-75.832889-75.832889s-75.832889 33.934222-75.832889 75.832889c0 32.540444 20.593778 60.046222 49.379556 70.826667-5.148444 38.855111-57.486222 160.768-156.558222 174.990222-8.021333 1.166222-16.497778 1.735111-25.173333 1.735111-64.227556 0-103.623111-30.890667-146.204444-54.584889 3.811556-9.045333 5.916444-18.972444 5.916444-29.383111 0-41.870222-33.934222-75.832889-75.832889-75.832889-20.536889 0-39.082667 8.248889-52.736 21.475556L31.004444 354.645333l0.625778 1.564444c-13.795556 13.710222-22.385778 32.739556-22.385778 53.76 0 41.841778 33.905778 75.776 75.747556 75.804444l196.209778 476.529778 462.933333 0 204.316444-496.241778C986.680889 462.165333 1016.604444 430.250667 1016.604444 391.025778zM706.048 905.415111 319.345778 905.415111 153.656889 503.068444c47.587556 23.580444 83.569778 47.786667 147.569778 47.786667 11.377778 0 22.584889-0.768 33.251556-2.304 83.598222-11.975111 156.615111-72.675556 180.280889-130.019556 25.031111 53.304889 98.56 108.970667 179.285333 123.505778 12.8 2.304 26.311111 3.470222 40.192 3.470222 60.472889 0 92.700444-21.930667 138.040889-43.719111L706.048 905.415111z"  /></svg>