<?xml version="1.0" standalone="no"?><!DOCTYPE svg PUBLIC "-//W3C//DTD SVG 1.1//EN" "http://www.w3.org/Graphics/SVG/1.1/DTD/svg11.dtd"><svg class="icon" width="200px" height="200.00px" viewBox="0 0 1024 1024" version="1.1" xmlns="http://www.w3.org/2000/svg"><path fill="#ffc0cb" d="M837.61 626.71l21.74-6.12c16.73-4.71 30.79-16.83 38.59-33.27a68.091 68.091 0 0 0 0.91-56.39c-6.27-14.41-2.44-31.66 9.1-41l4.66-3.77c15.21-12.32 23.93-31.07 23.93-51.44s-8.72-39.12-23.93-51.44l-4.66-3.77c-11.54-9.35-15.37-26.59-9.1-41a68.129 68.129 0 0 0-0.91-56.39c-7.8-16.43-21.87-28.56-38.59-33.27l-28.19-7.93c-11.34-3.19-19.77-13.75-21.49-26.89l-2.13-16.37c-4.46-34.22-33.27-58.56-65.55-55.43L692.82 147c-9.1 0.88-18.1-3.31-24.08-11.22l-23.76-31.37c-17.88-23.61-48.25-30.78-73.84-17.44l-46.76 24.38c-7.54 3.93-16.2 3.93-23.74 0l-46.76-24.38c-25.6-13.34-55.96-6.17-73.84 17.44l-23.76 31.37c-5.99 7.91-14.98 12.1-24.08 11.22l-49.17-4.77c-32.29-3.13-61.09 21.22-65.55 55.43l-2.14 16.37c-1.72 13.15-10.15 23.7-21.49 26.89l-28.19 7.93c-16.73 4.71-30.79 16.83-38.59 33.27a68.09 68.09 0 0 0-0.91 56.39c6.27 14.41 2.44 31.66-9.1 41l-4.66 3.77c-15.21 12.32-23.93 31.07-23.93 51.44s8.72 39.12 23.93 51.44l4.66 3.77c11.54 9.35 15.37 26.59 9.1 41a68.129 68.129 0 0 0 0.91 56.39c7.8 16.43 21.87 28.56 38.59 33.27l21.13 5.95C110.53 660.87 69 706.07 69 755.63c0 52.91 47.98 101.37 135.09 136.46 82.5 33.23 191.86 51.54 307.91 51.54s225.41-18.3 307.91-51.54C907.03 857 955 808.54 955 755.63c0-49.48-41.39-94.61-117.39-128.92z m-704.88 70.65c19.34-17.42 47.28-33.77 81.35-47.71 0.55 1.85 0.98 3.77 1.24 5.76 1.14 8.76 9.17 14.94 17.94 13.79 8.76-1.14 14.94-9.17 13.79-17.94-3.38-25.87-20.86-46.89-44.55-53.55l-28.19-7.93c-7.94-2.24-14.46-7.98-18.35-16.18a36.137 36.137 0 0 1-0.48-29.91c11.89-27.34 4.19-60.41-18.3-78.63l-4.66-3.77c-7.67-6.21-12.07-15.9-12.07-26.57s4.4-20.36 12.07-26.57l4.66-3.77c22.5-18.22 30.2-51.29 18.3-78.63a36.1 36.1 0 0 1 0.48-29.91c3.89-8.2 10.41-13.95 18.35-16.18l28.19-7.93c23.69-6.67 41.17-27.69 44.55-53.56l2.14-16.37c2.22-17 15.72-29.18 30.73-27.72l49.17 4.77c20.24 1.96 39.94-6.91 52.69-23.75l23.76-31.37c8.27-10.92 22.06-14.37 33.54-8.39l46.76 24.38c16.7 8.7 36.63 8.7 53.32 0l46.76-24.38c11.48-5.98 25.27-2.53 33.54 8.39l23.76 31.37c12.75 16.84 32.44 25.72 52.69 23.75l49.17-4.77c15.03-1.46 28.51 10.72 30.73 27.72l2.13 16.37c3.38 25.87 20.86 46.89 44.55 53.56l28.19 7.93c7.94 2.24 14.46 7.98 18.35 16.18 4.47 9.42 4.65 20.32 0.48 29.91-11.89 27.34-4.2 60.41 18.3 78.63l4.66 3.77c7.67 6.21 12.07 15.9 12.07 26.57s-4.4 20.36-12.07 26.57l-4.66 3.77c-22.5 18.22-30.19 51.29-18.3 78.63a36.1 36.1 0 0 1-0.48 29.91c-3.89 8.2-10.41 13.95-18.35 16.18l-28.19 7.93c-23.69 6.67-41.17 27.69-44.55 53.55-1.14 8.76 5.03 16.79 13.79 17.94 0.7 0.09 1.4 0.14 2.09 0.14 7.92 0 14.79-5.87 15.84-13.93 0.24-1.86 0.63-3.66 1.13-5.4 33.67 13.85 61.29 30.08 80.46 47.34 15.46 13.92 25.31 28.19 29.47 42.59-6.84 6.32-16.06 12.8-25.66 19.54l-2.19 1.54c-5.48 3.85-10.66 8.35-16.15 13.12-10.81 9.38-22 19.09-36.38 24.59-8.8 3.36-19.92 4.25-31.69 5.2-11.03 0.88-22.43 1.8-34.12 4.73-10.09 2.53-19.8 6.94-29.19 11.2-10.9 4.95-22.17 10.07-33.65 11.99-9.63 1.61-20.48 0.68-31.96-0.31-11.37-0.98-23.13-1.99-35.25-0.73-11.16 1.16-21.97 4.47-32.42 7.67-11.48 3.51-22.32 6.83-33.2 7.37-9.99 0.5-20.66-1.62-31.97-3.85-11.21-2.21-22.8-4.5-34.89-4.5s-23.68 2.29-34.88 4.5c-11.31 2.24-21.99 4.35-31.97 3.85-10.87-0.54-21.72-3.86-33.19-7.37-10.45-3.2-21.26-6.5-32.42-7.67-12.13-1.26-23.88-0.25-35.25 0.73-11.48 0.99-22.33 1.92-31.96 0.3-11.48-1.92-22.75-7.04-33.65-11.99-9.39-4.26-19.1-8.67-29.19-11.2-11.69-2.93-23.09-3.84-34.12-4.73-11.78-0.94-22.9-1.83-31.7-5.2-14.38-5.5-25.57-15.2-36.38-24.59-5.49-4.77-10.68-9.27-16.15-13.12l-2.19-1.54c-9.6-6.74-18.83-13.22-25.67-19.54 4.14-14.38 13.99-28.65 29.45-42.57z m675.23 165.05c-78.79 31.74-183.9 49.22-295.96 49.22-112.06 0-217.16-17.48-295.96-49.22-63.65-25.64-103.66-58.45-112.95-91.86 3.9 2.85 7.94 5.69 12.05 8.58l2.18 1.53c4.47 3.14 9.21 7.25 14.22 11.61 11.81 10.25 25.2 21.87 43.54 28.88 12.02 4.59 25.4 5.67 38.35 6.7 10.05 0.81 20.44 1.64 30.2 4.08 7.98 2 16.3 5.78 25.1 9.78 12.31 5.59 25.03 11.36 39.61 13.81 12.63 2.12 25.52 1.01 37.99-0.06 10.73-0.92 20.86-1.79 30.71-0.77 8.85 0.92 18.09 3.75 27.88 6.74 12.38 3.79 25.17 7.7 39.02 8.39 1.4 0.07 2.79 0.1 4.19 0.1 11.46 0 22.71-2.22 33.63-4.38 10.54-2.08 20.49-4.05 30.23-4.05s19.7 1.97 30.24 4.05c12.24 2.42 24.9 4.91 37.82 4.27 13.85-0.69 26.65-4.6 39.02-8.39 9.79-3 19.03-5.82 27.88-6.74 9.86-1.02 19.99-0.16 30.71 0.77 12.46 1.07 25.36 2.18 37.98 0.06 14.58-2.44 27.3-8.22 39.61-13.81 8.81-4 17.12-7.77 25.11-9.78 9.75-2.45 20.15-3.28 30.2-4.08 12.95-1.04 26.33-2.11 38.35-6.7 18.34-7.01 31.73-18.63 43.54-28.88 5.01-4.35 9.75-8.46 14.22-11.61l2.18-1.53c4.11-2.89 8.16-5.73 12.05-8.58-9.29 33.42-49.3 66.23-112.94 91.87zM409.01 735.04c-11.33-3.96-22.53-8.59-33.6-13.87-5.98-2.85-13.14-0.33-16 5.66-2.86 5.98-0.32 13.14 5.66 16 46.98 22.44 96.37 33.82 146.8 33.82 51.57 0 102.01-11.88 149.91-35.32 5.95-2.91 8.42-10.1 5.51-16.05-2.91-5.95-10.1-8.42-16.05-5.51a334.183 334.183 0 0 1-36.07 15.12C648.75 705.91 670 663.05 670 615.22c0-87.26-70.74-158-158-158s-158 70.74-158 158c0 47.92 21.33 90.85 55.01 119.82z m8.24-214.57c25.31-25.31 58.96-39.25 94.75-39.25s69.44 13.94 94.75 39.25c25.31 25.31 39.25 58.96 39.25 94.75s-13.94 69.44-39.25 94.75c-25.31 25.31-58.96 39.25-94.75 39.25s-69.44-13.94-94.75-39.25C391.94 684.66 378 651.01 378 615.22s13.94-69.44 39.25-94.75zM554.3 520.11c14.38 6.23 27.33 15.9 37.44 27.96a7.967 7.967 0 0 0 6.13 2.86c1.81 0 3.64-0.61 5.14-1.87 3.38-2.84 3.83-7.89 0.99-11.27-11.71-13.95-26.69-25.14-43.34-32.36-4.05-1.76-8.76 0.1-10.52 4.16-1.76 4.05 0.11 8.76 4.16 10.52zM492.14 728.62c0.5 0.09 1 0.14 1.49 0.14 3.77 0 7.13-2.68 7.85-6.52 0.82-4.34-2.04-8.52-6.38-9.34-29.53-5.56-54.92-23.86-69.67-50.2-2.16-3.85-7.04-5.23-10.89-3.07a8.003 8.003 0 0 0-3.07 10.89c17.07 30.48 46.48 51.66 80.67 58.1z" /></svg>