<svg class="icon" width="200" height="200" viewBox="0 0 1024 1024" xmlns="http://www.w3.org/2000/svg"><path d="M418.8 172.1h177.5v53.1H418.8z" fill="#FFF"/><path d="M596.3 240.2H418.8c-8.3 0-15-6.7-15-15v-53.1c0-8.3 6.7-15 15-15h177.5c8.3 0 15 6.7 15 15v53.1c0 8.3-6.7 15-15 15zm-162.5-30h147.5v-23.1H433.8v23.1z" fill="#333"/><path d="M563.2 318.3H451.9L481 225v-81.7l29.5-22.2 29.5 22.2v81z" fill="#FFF"/><path d="M563.2 333.3H451.9c-4.8 0-9.3-2.3-12.1-6.1-2.8-3.8-3.7-8.8-2.2-13.4l28.4-91.1v-79.5c0-4.7 2.2-9.2 6-12l29.5-22.1c5.3-4 12.7-4 18 0l29.5 22.1c3.8 2.8 6 7.3 6 12v79.2l22.7 92.3c1.1 4.5.1 9.2-2.8 12.8s-7.1 5.8-11.7 5.8zm-90.9-30h71.8l-18.6-75.4c-.3-1.2-.4-2.4-.4-3.6v-73.5l-14.5-10.9-14.6 10.9V225c0 1.5-.2 3-.7 4.5l-23 73.8z" fill="#333"/><path d="M584 711.2c-52.8-1.4-104.3-.2-154.5 0 48.3-94.4 64.6-143.2 33.2-231.1h89.9c-21.9 89.4-10 138 31.4 231.1z" fill="#FFF"/><path d="M584 726.2h-.4c-38.3-1-76.4-.7-113.3-.3-13.4.1-27.3.3-40.8.3h-.1c-5.2 0-10-2.7-12.8-7.1-2.7-4.5-3-10-.6-14.7 46.3-90.5 62.2-135.7 32.4-219.2-1.6-4.6-.9-9.7 1.9-13.7s7.4-6.4 12.3-6.4h89.9c4.6 0 9 2.1 11.8 5.7 2.8 3.6 3.9 8.4 2.8 12.8-20.6 84.2-10.5 129.1 30.6 221.4 2.1 4.7 1.6 10.2-1.2 14.4-2.8 4.3-7.5 6.8-12.5 6.8zM483.4 495.1c10.8 36.8 13 68.6 7.4 100.7-5.5 30.9-17.8 61.4-36.8 100.2 5.4 0 10.8-.1 16.2-.1 29.6-.3 60-.6 90.9-.1-33-77.8-42.4-126.5-27.1-200.6l-50.6-.1z" fill="#333"/><path d="M713.8 902.9H308.5v-24.2c0-17 13.8-30.7 30.7-30.7h343.9c17 0 30.7 13.8 30.7 30.7v24.2z" fill="#FFF"/><path d="M713.8 917.9H308.5c-8.3 0-15-6.7-15-15v-24.2c0-25.2 20.5-45.7 45.7-45.7h343.9c25.2 0 45.7 20.5 45.7 45.7v24.2c0 8.2-6.7 15-15 15zm-390.3-30h375.3v-9.2c0-8.7-7.1-15.7-15.7-15.7H339.2c-8.7 0-15.7 7.1-15.7 15.7v9.2z" fill="#333"/><path d="M620.1 747.8c79.1 43.1 131.5 88.4 65.3 100.4H335.7c-55.7-20.6-15.3-55 61.6-100.4v-33.3l38.8-5h148.7l35.4 5v33.3h-.1z" fill="#FFF"/><path d="M685.3 863.2H335.6c-1.8 0-3.5-.3-5.2-.9-22.3-8.2-34.2-20.1-35.6-35.4-2.2-24.1 21.7-48.2 87.4-87.6v-24.8c0-7.5 5.6-13.9 13.1-14.9l38.8-5c.6-.1 1.3-.1 1.9-.1h148.7c.7 0 1.4 0 2.1.1l35.4 5c7.4 1 12.9 7.4 12.9 14.9V739c90.3 50.5 97.6 77.4 95 93.4-2.5 15.7-16.7 26-42.1 30.6-.9.1-1.8.2-2.7.2zm-346.9-30H684c11.3-2.2 15.3-5 16.4-6-.5-2-3.7-9.8-22-24.5-15.4-12.3-38-26.8-65.5-41.8-4.8-2.6-7.8-7.7-7.8-13.2v-20.3l-21.5-3H436.9l-24.8 3.2v20.1c0 5.3-2.8 10.2-7.4 12.9-29.3 17.3-49.1 30.5-62.4 41.7-18.1 15.3-17.7 21.7-17.7 21.7.1 1 2.7 4.7 13.8 9.2zm362.1-5.5z" fill="#333"/><path d="M605.4 479.8H411.8c-8.1 0-14.7-6.6-14.7-14.7V454c0-8.1 6.6-14.7 14.7-14.7h193.6c8.1 0 14.7 6.6 14.7 14.7v11.2c0 8.1-6.6 14.6-14.7 14.6z" fill="#FFF"/><path d="M605.4 494.8H411.8c-16.4 0-29.7-13.3-29.7-29.7V454c0-16.4 13.3-29.7 29.7-29.7h193.6c16.4 0 29.7 13.3 29.7 29.7v11.2c0 16.3-13.3 29.6-29.7 29.6zm-193.2-30h192.9v-10.6H412.2v10.6z" fill="#333"/><path d="M572.8 439.2H445.4c-8.1 0-14.6-6.5-14.6-14.6v-10.3c0-8.1 6.5-14.6 14.6-14.6h127.4c8.1 0 14.6 6.5 14.6 14.6v10.3c0 8.1-6.6 14.6-14.6 14.6z" fill="#FFF"/><path d="M572.8 454.2H445.4c-16.3 0-29.6-13.3-29.6-29.6v-10.3c0-16.3 13.3-29.6 29.6-29.6h127.4c16.3 0 29.6 13.3 29.6 29.6v10.3c0 16.4-13.3 29.6-29.6 29.6zm-127-30h126.6v-9.5H445.8v9.5z" fill="#333"/><path d="M579 400.2H439.6l-40.8-94.3c-4.4-10.3 3.2-21.7 14.4-21.6 76.2 1.1 119.4 1.2 195.4 0 11.2-.2 18.8 11.5 14.1 21.7L579 400.2z" fill="#FFF"/><path d="M579 415.2H439.6c-6 0-11.4-3.6-13.8-9L385 311.8c-4.1-9.5-3.1-20.3 2.6-29 5.8-8.6 15.4-13.7 25.7-13.5 79.6 1.1 121.5 1.1 195 0 10.5-.1 20.1 5 25.8 13.8 5.7 8.8 6.5 19.7 2.1 29.2l-43.7 94.2c-2.4 5.3-7.7 8.7-13.5 8.7zm-129.6-30h120l39.6-85.5v-.1c0-.1-.1-.2-.2-.2h-.1c-72.9 1.1-116.8 1.1-195.8 0-.2 0-.2 0-.4.2-.1.2-.1.3 0 .4l36.9 85.2z" fill="#333"/></svg>