<?xml version="1.0" standalone="no"?><!DOCTYPE svg PUBLIC "-//W3C//DTD SVG 1.1//EN" "http://www.w3.org/Graphics/SVG/1.1/DTD/svg11.dtd"><svg class="icon" width="200px" height="177.78px" viewBox="0 0 1152 1024" version="1.1" xmlns="http://www.w3.org/2000/svg"><path fill="#eeb174" d="M576.0224 948.224c4.48 0 8.768-1.92 13.632-7.424l497.664-481.152a17.28 17.28 0 0 0 2.24-19.072l-190.784-371.2a15.744 15.744 0 0 0-13.952-8.704H267.3504a15.744 15.744 0 0 0-13.952 8.768L62.6144 440.576c-3.2 6.208-2.304 13.888 0.32 17.088l501.376 485.12a15.552 15.552 0 0 0 11.776 5.44z m-55.68 36.16L18.8384 499.264a77.952 77.952 0 0 1-10.24-86.4l190.72-371.2C212.6304 16.064 238.7424 0 267.4144 0h617.472c28.608 0 54.784 16.128 67.904 41.664l190.784 371.2c14.528 28.16 10.432 62.464-12.16 88.448L633.8144 982.4a76.16 76.16 0 0 1-57.664 26.496c-22.144 0-43.136-9.6-55.808-24.512z m336.448-568.96c-9.024 8.704-18.304 17.92-27.904 27.52 0.768-0.704-164.8 173.696-232.128 238.848-5.76 6.528-11.328 9.024-17.024 9.024a20.032 20.032 0 0 1-15.168-7.04A9390.464 9390.464 0 0 1 346.1344 464L299.6704 416l-43.52 42.24 46.464 47.872c19.392 20.032 35.008 36.032 50.432 51.84 40 40.96 75.264 76.608 109.44 110.656 19.968 19.712 39.232 38.656 57.984 56.768 13.568 15.872 35.84 26.112 59.264 26.112s45.696-10.24 61.056-28.16c66.56-64.192 232.832-239.36 231.232-237.696 9.344-9.408 18.24-18.24 26.944-26.688l-42.176-43.648z"  /></svg>