<?xml version="1.0" standalone="no"?><!DOCTYPE svg PUBLIC "-//W3C//DTD SVG 1.1//EN" "http://www.w3.org/Graphics/SVG/1.1/DTD/svg11.dtd"><svg class="icon" width="200px" height="200.00px" viewBox="0 0 1024 1024" version="1.1" xmlns="http://www.w3.org/2000/svg"><path fill="#ffc0cb" d="M192.11 894.29v-778.7c0-10.72 8.69-19.41 19.41-19.41H813c10.72 0 19.41 8.69 19.41 19.41v778.65c0 14.53-15.38 23.91-28.29 17.26L511.43 760.88 220.45 911.53c-12.92 6.69-28.34-2.68-28.34-17.24z m328.14-200.84l248.16 127.7V160.18h-512.3V821l246.33-127.53c5.58-2.89 12.22-2.9 17.81-0.02z"  /><path fill="#ffc0cb" d="M656.03 352.21H368.62c-5.44 0-9.84-4.41-9.84-9.84v-44.31c0-5.44 4.41-9.84 9.84-9.84h287.41c5.44 0 9.84 4.41 9.84 9.84v44.31c0 5.43-4.41 9.84-9.84 9.84z"  /></svg>