<?xml version="1.0" standalone="no"?><!DOCTYPE svg PUBLIC "-//W3C//DTD SVG 1.1//EN" "http://www.w3.org/Graphics/SVG/1.1/DTD/svg11.dtd"><svg class="icon" width="200px" height="200.00px" viewBox="0 0 1024 1024" version="1.1" xmlns="http://www.w3.org/2000/svg"><path fill="#9c221f" d="M523.1 959.4c-8.2 0-16-3.4-21.5-9.5l-483.3-528c-7.8-8.5-9.8-20.9-5.2-31.5 4.7-10.6 15.1-17.4 26.7-17.4h944.4c11.5 0 22 6.8 26.6 17.3 4.7 10.5 2.8 22.8-4.9 31.4L544.8 949.8c-5.5 6.1-13.3 9.6-21.6 9.7 0-0.1 0-0.1-0.1-0.1z m-417-528l416.8 455.5 395.9-455.5H106.1z"  /><path fill="#9c221f" d="M39.8 433.1c-7.3 0-14.6-2.7-20.3-8.2-11.6-11.2-11.8-29.7-0.6-41.3l246.2-253.7c5.5-5.7 13-8.9 20.9-8.9h480.5c8.2 0 16 3.4 21.5 9.5l217.7 252c10.9 11.9 10.1 30.3-1.8 41.2-11.9 10.9-30.4 10-41.2-1.8L753.6 179.4H298.3L60.7 424.2c-5.7 5.9-13.3 8.9-20.9 8.9z"  /><path fill="#9c221f" d="M523.1 959.4c-11.5 0-21.9-6.8-26.6-17.2l-239.1-529c-6.6-14.7-0.1-32 14.6-38.6 14.6-6.6 31.9-0.1 38.6 14.6L523.4 860 740 390c6.7-14.6 24.1-21 38.7-14.3s21 24.1 14.3 38.7L549.6 942.5c-4.8 10.3-15.1 16.9-26.5 16.9z"  /><path fill="#9c221f" d="M286.2 431.4c-16.1 0-29.2-13.1-29.2-29.2V148.6c0-16.1 13.1-29.2 29.2-29.2s29.2 13.1 29.2 29.2v253.6c-0.1 16.1-13.1 29.2-29.2 29.2zM766.4 431.4c-16.1 0-29.2-13.1-29.2-29.2V148.6c0-16.1 13.1-29.2 29.2-29.2s29.2 13.1 29.2 29.2v253.6c0 16.1-13 29.2-29.2 29.2z"  /><path fill="#9c221f" d="M770.6 430.3c-7.6 0-15.1-2.9-20.8-8.7l-222.5-227-222.5 227c-11.3 11.5-29.7 11.7-41.3 0.4-11.5-11.3-11.7-29.8-0.4-41.3l243.3-248.2c11-11.2 30.7-11.2 41.7 0l243.3 248.2c11.3 11.5 11.1 30-0.4 41.3-5.7 5.5-13 8.3-20.4 8.3z"  /></svg>