<svg class="icon" width="200" height="200" viewBox="0 0 1024 1024" xmlns="http://www.w3.org/2000/svg"><path fill="#2e1a29" d="M587.162 640.614c1.74-7.475 2.97-15.462 3.379-23.961 7.065-154.112-77.21-280.371-203.469-361.472-75.06-48.23-146.33 4.403-164.352 71.475-46.49-37.069-127.18 18.432-90.931 79.258 1.331 2.252 2.662 4.403 3.993 6.656-36.352-.103-152.37-.512-119.91 0 38.4.716 130.56 104.038 130.56 104.038v-87.142c28.262 43.212 64.41 83.763 118.272 89.804 24.576 2.765 44.851-4.812 61.44-18.124 20.992 25.702 31.744 54.681 33.894 89.292-18.432-.307-36.864.512-55.5 2.663-64.308 7.577-104.039 21.709-117.044 89.088-19.558 101.478 33.28 175.616 90.215 253.235 46.285 63.078 152.985 1.946 105.984-62.054-38.4-52.327-77.005-95.232-75.367-156.058 37.479-5.734 74.855-4.198 112.948-.512 18.636 7.987 39.628 11.264 60.416 9.626 31.027 103.833 90.01 196.198 166.297 275.148 55.194 57.037 141.927-30.003 86.835-86.835-75.776-78.131-126.464-168.755-147.66-274.125zM122.368 142.336c.205 1.74.205 3.482.41 5.222 7.782 56.832 60.21 96.564 116.94 88.679 56.832-7.783 96.461-60.211 88.679-117.043a103.682 103.682 0 00-10.343-32.87c3.482-1.742 5.12-5.735 3.892-14.132l-3.38-24.78C314.778 19.66 289.178.306 261.427 4.095L150.835 19.251c-27.75 3.789-47.206 29.389-43.315 57.14l2.662 20.07c-15.462 12.39-28.57 27.955-25.702 44.544 2.662 14.848 18.944 11.161 37.888 1.331zm280.371 94.925s248.935 133.427 219.546 330.137c-64.512 163.943 216.985 332.903 369.971-45.26 0 0 194.867-518.35-589.517-284.877zm421.479 308.633v31.642h-33.69v-29.798c-15.565-1.434-31.027-6.656-41.062-13.722l-4.71-3.38 12.185-34.098 8.192 5.427c10.65 7.065 24.371 11.161 37.478 11.161 16.077 0 26.829-8.396 26.829-20.787 0-8.397-3.38-17.408-27.955-27.443-26.01-10.138-52.634-24.986-52.634-57.344 0-25.907 17.101-46.182 43.827-52.94v-30.72h33.383v28.671c12.697 1.331 23.859 4.813 33.894 10.752l5.632 3.277-12.697 33.587-7.885-4.505c-4.608-2.663-15.463-8.807-32.666-8.807-16.998 0-23.04 8.909-23.04 17.306 0 9.011 4.506 14.95 31.232 26.01 23.143 9.42 49.767 24.78 49.767 60.108-.205 26.931-18.432 48.538-46.08 55.603z"/></svg>