<?xml version="1.0" standalone="no"?><!DOCTYPE svg PUBLIC "-//W3C//DTD SVG 1.1//EN" "http://www.w3.org/Graphics/SVG/1.1/DTD/svg11.dtd"><svg class="icon" width="200px" height="200.00px" viewBox="0 0 1024 1024" version="1.1" xmlns="http://www.w3.org/2000/svg"><path fill="#2e1a29" d="M587.1616 640.6144c1.7408-7.4752 2.9696-15.4624 3.3792-23.9616 7.0656-154.112-77.2096-280.3712-203.4688-361.472-75.0592-48.2304-146.3296 4.4032-164.352 71.4752-46.4896-37.0688-127.1808 18.432-90.9312 79.2576 1.3312 2.2528 2.6624 4.4032 3.9936 6.656-36.352-0.1024-152.3712-0.512-119.9104 0C54.272 413.2864 146.432 516.608 146.432 516.608v-87.1424c28.2624 43.2128 64.4096 83.7632 118.272 89.8048 24.576 2.7648 44.8512-4.8128 61.44-18.1248 20.992 25.7024 31.744 54.6816 33.8944 89.2928-18.432-0.3072-36.864 0.512-55.5008 2.6624-64.3072 7.5776-104.0384 21.7088-117.0432 89.088-19.5584 101.4784 33.28 175.616 90.2144 253.2352 46.2848 63.0784 152.9856 1.9456 105.984-62.0544-38.4-52.3264-77.0048-95.232-75.3664-156.0576 37.4784-5.7344 74.8544-4.1984 112.9472-0.512 18.6368 7.9872 39.6288 11.264 60.416 9.6256 31.0272 103.8336 90.0096 196.1984 166.2976 275.1488 55.1936 57.0368 141.9264-30.0032 86.8352-86.8352-75.776-78.1312-126.464-168.7552-147.6608-274.1248zM122.368 142.336c0.2048 1.7408 0.2048 3.4816 0.4096 5.2224 7.7824 56.832 60.2112 96.5632 116.9408 88.6784 56.832-7.7824 96.4608-60.2112 88.6784-117.0432-1.6384-11.776-5.2224-22.8352-10.3424-32.8704 3.4816-1.7408 5.12-5.7344 3.8912-14.1312l-3.3792-24.7808C314.7776 19.6608 289.1776 0.3072 261.4272 4.096l-110.592 15.1552c-27.7504 3.7888-47.2064 29.3888-43.3152 57.1392l2.6624 20.0704c-15.4624 12.3904-28.5696 27.9552-25.7024 44.544 2.6624 14.848 18.944 11.1616 37.888 1.3312zM402.7392 237.2608S651.6736 370.688 622.2848 567.3984c-64.512 163.9424 216.9856 332.9024 369.9712-45.2608 0 0 194.8672-518.3488-589.5168-284.8768z m421.4784 308.6336V577.536H790.528v-29.7984c-15.5648-1.4336-31.0272-6.656-41.0624-13.7216l-4.7104-3.3792 12.1856-34.0992 8.192 5.4272c10.6496 7.0656 24.3712 11.1616 37.4784 11.1616 16.0768 0 26.8288-8.3968 26.8288-20.7872 0-8.3968-3.3792-17.408-27.9552-27.4432-26.0096-10.1376-52.6336-24.9856-52.6336-57.344 0-25.9072 17.1008-46.1824 43.8272-52.9408v-30.72h33.3824v28.672c12.6976 1.3312 23.8592 4.8128 33.8944 10.752l5.632 3.2768-12.6976 33.5872-7.8848-4.5056c-4.608-2.6624-15.4624-8.8064-32.6656-8.8064-16.9984 0-23.04 8.9088-23.04 17.3056 0 9.0112 4.5056 14.9504 31.232 26.0096 23.1424 9.4208 49.7664 24.7808 49.7664 60.1088-0.2048 26.9312-18.432 48.5376-46.08 55.6032z" /></svg>